<svg fill="none" height="133" viewBox="0 0 326 133" width="326" xmlns="http://www.w3.org/2000/svg"><g fill="#fff" opacity=".3"><path clip-rule="evenodd" d="m163.458 12.044 3.542 3.542-1.414 1.414-3.542-3.542c-1.262.963-2.834 1.542-4.544 1.542-4.142 0-7.5-3.3579-7.5-7.5 0-4.14214 3.358-7.5 7.5-7.5s7.5 3.35786 7.5 7.5c0 1.64309-.542 3.2403-1.542 4.544zm-5.958-10.044c-3.033 0-5.5 2.467-5.5 5.5.003 3.0362 2.464 5.4967 5.5 5.5 3.032 0 5.5-2.468 5.5-5.5 0-3.033-2.468-5.5-5.5-5.5z" fill-rule="evenodd"/><path d="m20.83 92.965 2.089 2.099-17.789 17.883 17.847 17.939-2.09 2.099-19.934997-20.038z"/></g></svg>